<svg xmlns="http://www.w3.org/2000/svg" width="18" height="18" viewBox="0 0 48 48">
  <path fill="#EA4335" d="M24 9.5c3.54 0 6.71 1.22 9.21 3.6l6.85-6.85C35.9 2.28 30.47 0 24 0 14.62 0 6.51 5.42 2.56 13.28l7.98 6.19C12.43 13.5 17.78 9.5 24 9.5z"></path>
  <path fill="#4285F4" d="M46.5 24c0-1.56-.14-3.06-.39-4.5H24v9h12.65c-.54 2.91-2.2 5.36-4.7 7.02l7.27 5.64C43.51 37.8 46.5 31.4 46.5 24z"></path>
  <path fill="#FBBC05" d="M10.54 28.47a14.41 14.41 0 0 1 0-8.94l-7.98-6.19C.92 16.78 0 20.31 0 24s.92 7.22 2.56 10.66l7.98-6.19z"></path>
  <path fill="#34A853" d="M24 48c6.48 0 11.93-2.13 15.9-5.78l-7.27-5.64c-2.02 1.38-4.63 2.18-8.63 2.18-6.22 0-11.57-4-13.46-9.47l-7.98 6.19C6.51 42.58 14.62 48 24 48z"></path>
</svg>
